<?xml version="1.0" encoding="utf-8"?>
<!-- Generator: Adobe Illustrator 22.1.0, SVG Export Plug-In . SVG Version: 6.00 Build 0)  -->
<svg version="1.1" id="Layer_1" xmlns="http://www.w3.org/2000/svg" xmlns:xlink="http://www.w3.org/1999/xlink" x="0px" y="0px"
	 viewBox="0 0 300 300" style="enable-background:new 0 0 300 300;" xml:space="preserve">
<style type="text/css">
	.st0{fill:#FFFFFF;}
</style>
<g>
	<path class="st0" d="M118.3,122.3c7.9-4.4,31.1-13.9,62.9,1c9.6-18.4,28.9-31,51.2-31V66H67.7v26.3
		C89.5,92.3,108.5,104.4,118.3,122.3z"/>
	<path class="st0" d="M174.7,150c0-6.3,1-12.4,2.9-18.1c-8.6-4-29.3-11-55.4-0.9c2.1,5.9,3.2,12.3,3.2,19
		c0,31.9-25.8,57.7-57.7,57.7v23h164.7v-23C200.5,207.7,174.7,181.9,174.7,150z"/>
	<circle class="st0" cx="235.3" cy="150" r="50.3"/>
	<circle class="st0" cx="65" cy="150" r="50.3"/>
</g>
</svg>
