<svg width="512" height="512" xmlns="http://www.w3.org/2000/svg">

 <g>
  <title>background</title>
  <rect fill="none" id="canvas_background" height="402" width="582" y="-1" x="-1"/>
 </g>
 <g>
  <title>Layer 1</title>
  <path stroke="null" id="svg_1" d="m501.954035,96.841089l-65.887826,-51.966172c-2.040242,-1.6802 -4.560542,-2.880342 -7.440884,-2.880342c-2.880342,0 -5.520656,1.200143 -7.560898,3.000356l-239.668466,307.956577c0,0 -94.21119,-90.610762 -96.851503,-93.251076c-2.640314,-2.640314 -6.120727,-7.080841 -11.401354,-7.080841c-5.280627,0 -7.680912,3.720442 -10.44124,6.48077c-2.040242,2.160257 -35.644234,37.444447 -52.206201,54.966528c-0.960114,1.080128 -1.560185,1.6802 -2.400285,2.520299c-1.440171,2.040242 -2.400285,4.320513 -2.400285,6.840812c0,2.640314 0.960114,4.80057 2.400285,6.840812l3.360399,3.120371c0,0 167.179856,160.579072 169.940184,163.3394c2.760328,2.760328 6.120727,6.240741 11.041311,6.240741c4.80057,0 8.761041,-5.160613 11.041311,-7.440884l298.955507,-384.045614c1.440171,-2.040242 2.400285,-4.320513 2.400285,-6.960827c0,-3.000356 -1.200143,-5.520656 -2.880342,-7.680912z"/>
 </g>
</svg>